<svg width="627" height="112" viewBox="0 0 627 112" fill="none" xmlns="http://www.w3.org/2000/svg">
<path d="M612.402 80.3934C609.741 80.3934 607.495 79.5063 605.665 77.7311C603.836 75.9562 602.92 73.7099 602.92 70.9919C602.92 68.2188 603.821 65.9725 605.623 64.2531C607.425 62.5339 609.685 61.6741 612.402 61.6741C615.174 61.6741 617.448 62.5339 619.222 64.2531C620.996 65.9725 621.884 68.2188 621.884 70.9919C621.884 73.7099 620.982 75.9562 619.18 77.7311C617.379 79.5063 615.118 80.3934 612.402 80.3934ZM21.7479 2.79597H99.452C108.599 2.79597 116.083 10.2863 116.083 19.4401V69.3715C116.083 78.5257 108.599 86.0155 99.452 86.0155H59.5114C50.7054 93.141 36.8646 104.384 33.9284 107.003C29.5486 110.911 28.4834 108.424 28.4834 108.424L28.5895 86.0155H21.7479C12.6004 86.0155 5.11646 78.5257 5.11646 69.3715V57.4V52.64V36.12V24.64V19.4401C5.11646 10.2863 12.6004 2.79597 21.7479 2.79597ZM33.67 52.64V54.0835C33.67 59.0742 38.3002 63.1572 43.9609 63.1572H72.7754C73.9078 63.1572 74.8339 62.3405 74.8339 61.3424V55.134L84.7007 62.5141C84.7007 62.5141 88.507 64.8509 88.7318 61.0286V45.7524V43.1991V27.9234C88.507 24.1011 84.7007 26.4378 84.7007 26.4378L74.8339 33.8179V27.9341C74.8339 26.936 73.9078 26.1193 72.7754 26.1193H43.9609C38.3002 26.1193 33.67 30.2019 33.67 35.1931V36.12V52.64ZM583.959 39.9596C585.566 37.9071 587.66 36.3682 590.238 35.342C592.817 34.3161 595.769 33.8032 599.095 33.8032V48.0292C597.654 47.8634 596.462 47.7796 595.519 47.7796C592.137 47.7796 589.489 48.6951 587.577 50.5254C585.664 52.356 584.707 55.1571 584.707 58.9284V79.6448H568.904V34.5518H583.959V39.9596ZM558.758 34.5518V79.6448H543.704V74.8196C542.04 76.6494 540.044 78.036 537.716 78.9788C535.387 79.9216 532.919 80.3934 530.313 80.3934C524.491 80.3934 519.848 78.674 516.382 75.2349C512.916 71.7963 511.184 66.6384 511.184 59.7601V34.5518H526.987V57.1812C526.987 60.5644 527.624 63.0329 528.9 64.5859C530.175 66.1394 532.032 66.9153 534.472 66.9153C536.967 66.9153 539.005 66.0417 540.585 64.2945C542.165 62.5477 542.956 59.8712 542.956 56.2661V34.5518H558.758ZM478.581 67.8308C481.353 67.8308 483.627 66.8739 485.401 64.9604C487.175 63.0468 488.063 60.3987 488.063 57.0147C488.063 53.6872 487.175 51.0798 485.401 49.1942C483.627 47.3086 481.353 46.3658 478.581 46.3658C475.808 46.3658 473.535 47.3086 471.761 49.1942C469.987 51.0798 469.099 53.6872 469.099 57.0147C469.099 60.3987 469.987 63.0468 471.761 64.9604C473.535 66.8739 475.808 67.8308 478.581 67.8308ZM478.581 80.3934C473.757 80.3934 469.404 79.3952 465.523 77.3985C461.641 75.4018 458.606 72.6286 456.416 69.0789C454.226 65.5287 453.131 61.5073 453.131 57.0147C453.131 52.5775 454.226 48.584 456.416 45.0343C458.606 41.4848 461.628 38.7253 465.482 36.7566C469.335 34.7872 473.702 33.8032 478.581 33.8032C483.46 33.8032 487.84 34.7872 491.722 36.7566C495.603 38.7253 498.625 41.4707 500.788 44.9931C502.95 48.5148 504.031 52.5222 504.031 57.0147C504.031 61.5073 502.95 65.5287 500.788 69.0789C498.625 72.6286 495.603 75.4018 491.722 77.3985C487.84 79.3952 483.46 80.3934 478.581 80.3934ZM445.063 21.4063V79.6448H428.595V56.9316H406.139V79.6448H389.671V21.4063H406.139V43.2871H428.595V21.4063H445.063ZM358.648 77.8145C357.318 78.6462 355.696 79.2841 353.783 79.7279C351.87 80.1716 349.832 80.3934 347.67 80.3934C341.792 80.3934 337.273 78.9515 334.113 76.0673C330.952 73.1828 329.372 68.8847 329.372 63.1714V48.0292H322.801V36.2156H329.372V24.4848H345.175V36.2156H355.488V48.0292H345.175V63.0049C345.175 64.6137 345.604 65.8753 346.464 66.7908C347.323 67.7058 348.474 68.1634 349.915 68.1634C351.745 68.1634 353.353 67.6917 354.739 66.7489L358.648 77.8145ZM296.187 45.0343C293.746 45.0343 291.709 45.7278 290.074 47.1144C288.438 48.5009 287.398 50.3866 286.955 52.7717H305.419C304.975 50.3866 303.936 48.5009 302.3 47.1144C300.664 45.7278 298.627 45.0343 296.187 45.0343ZM320.223 57.1812C320.223 57.2923 320.14 58.5957 319.974 61.092H287.204C287.869 63.4213 289.159 65.21 291.072 66.4581C292.984 67.7058 295.383 68.3299 298.266 68.3299C300.429 68.3299 302.3 68.025 303.88 67.4148C305.46 66.8042 307.055 65.806 308.662 64.4195L316.979 73.0724C312.599 77.9529 306.195 80.3934 297.767 80.3934C292.499 80.3934 287.869 79.3952 283.877 77.3985C279.885 75.4018 276.794 72.6286 274.604 69.0789C272.414 65.5287 271.319 61.5073 271.319 57.0147C271.319 52.5775 272.386 48.5981 274.52 45.0762C276.656 41.554 279.608 38.7946 283.378 36.798C287.149 34.8013 291.391 33.8032 296.103 33.8032C300.595 33.8032 304.67 34.7319 308.33 36.5897C311.989 38.448 314.886 41.1381 317.021 44.6598C319.156 48.1822 320.223 52.356 320.223 57.1812ZM242.791 45.0343C240.351 45.0343 238.313 45.7278 236.678 47.1144C235.042 48.5009 234.003 50.3866 233.559 52.7717H252.023C251.579 50.3866 250.539 48.5009 248.904 47.1144C247.268 45.7278 245.23 45.0343 242.791 45.0343ZM266.827 57.1812C266.827 57.2923 266.744 58.5957 266.578 61.092H233.808C234.474 63.4213 235.763 65.21 237.676 66.4581C239.588 67.7058 241.987 68.3299 244.87 68.3299C247.033 68.3299 248.904 68.025 250.484 67.4148C252.064 66.8042 253.658 65.806 255.267 64.4195L263.584 73.0724C259.204 77.9529 252.799 80.3934 244.371 80.3934C239.103 80.3934 234.474 79.3952 230.481 77.3985C226.489 75.4018 223.398 72.6286 221.208 69.0789C219.018 65.5287 217.923 61.5073 217.923 57.0147C217.923 52.5775 218.99 48.5981 221.125 45.0762C223.259 41.554 226.212 38.7946 229.982 36.798C233.753 34.8013 237.995 33.8032 242.707 33.8032C247.198 33.8032 251.274 34.7319 254.933 36.5897C258.593 38.448 261.49 41.1381 263.625 44.6598C265.76 48.1822 266.827 52.356 266.827 57.1812ZM194.718 79.6448L194.551 48.7782L179.581 73.9041H172.261L157.374 49.6106V79.6448H142.154V21.4063H155.711L176.171 55.018L196.131 21.4063H209.688L209.855 79.6448H194.718Z" fill="white"/>
</svg>
