<svg width="16" height="24" viewBox="0 0 16 24" fill="none" xmlns="http://www.w3.org/2000/svg">
<path d="M10.1579 4.80599V12C10.1579 12.5723 9.93055 13.1212 9.52585 13.5259C9.12115 13.9306 8.57225 14.158 7.99991 14.158C7.42758 14.158 6.87868 13.9306 6.47398 13.5259C6.06927 13.1212 5.84191 12.5723 5.84191 12V4.80599C5.84191 4.23365 6.06927 3.68476 6.47398 3.28005C6.87868 2.87535 7.42758 2.64799 7.99991 2.64799C8.57225 2.64799 9.12115 2.87535 9.52585 3.28005C9.93055 3.68476 10.1579 4.23365 10.1579 4.80599ZM3.68391 4.80599V12C3.68391 13.1447 4.13863 14.2425 4.94804 15.0519C5.75745 15.8613 6.85524 16.316 7.99991 16.316C9.14459 16.316 10.2424 15.8613 11.0518 15.0519C11.8612 14.2425 12.3159 13.1447 12.3159 12V4.80599C12.3159 3.66132 11.8612 2.56352 11.0518 1.75412C10.2424 0.94471 9.14459 0.48999 7.99991 0.48999C6.85524 0.48999 5.75745 0.94471 4.94804 1.75412C4.13863 2.56352 3.68391 3.66132 3.68391 4.80599ZM2.24492 10.206C2.24492 9.91982 2.13123 9.64537 1.92888 9.44302C1.72653 9.24067 1.45208 9.12699 1.16591 9.12699C0.879746 9.12699 0.605298 9.24067 0.402946 9.44302C0.200595 9.64537 0.0869141 9.91982 0.0869141 10.206V12.006C0.0870843 13.9179 0.779201 15.7651 2.03539 17.2064C3.29158 18.6477 5.02696 19.5857 6.92091 19.847V21.358H4.76291C4.47675 21.358 4.2023 21.4717 3.99995 21.674C3.79759 21.8764 3.68391 22.1508 3.68391 22.437C3.68391 22.7232 3.79759 22.9976 3.99995 23.2C4.2023 23.4023 4.47675 23.516 4.76291 23.516H11.2369C11.5231 23.516 11.7975 23.4023 11.9999 23.2C12.2022 22.9976 12.3159 22.7232 12.3159 22.437C12.3159 22.1508 12.2022 21.8764 11.9999 21.674C11.7975 21.4717 11.5231 21.358 11.2369 21.358H9.07891V19.84C10.9729 19.5787 12.7082 18.6407 13.9644 17.1994C15.2206 15.7581 15.9127 13.9109 15.9129 11.999V10.199C15.9129 9.91282 15.7992 9.63837 15.5969 9.43602C15.3945 9.23367 15.1201 9.11999 14.8339 9.11999C14.5477 9.11999 14.2733 9.23367 14.0709 9.43602C13.8686 9.63837 13.7549 9.91282 13.7549 10.199V11.999C13.7549 12.7547 13.6061 13.5031 13.3168 14.2013C13.0276 14.8996 12.6037 15.534 12.0693 16.0684C11.5349 16.6028 10.9005 17.0267 10.2023 17.3159C9.50403 17.6051 8.75567 17.754 7.99991 17.754C7.24416 17.754 6.4958 17.6051 5.79757 17.3159C5.09934 17.0267 4.46492 16.6028 3.93052 16.0684C3.39611 15.534 2.9722 14.8996 2.68299 14.2013C2.39377 13.5031 2.24492 12.7547 2.24492 11.999V10.206Z" fill="#4B6790"/>
</svg>
