<svg width="38" height="36" viewBox="0 0 38 36" fill="none" xmlns="http://www.w3.org/2000/svg">
<path d="M21.3062 18.365C21.1322 18.548 21.2422 19.506 21.2142 19.824C21.0192 22.008 18.7412 22.355 17.1042 23.108C18.4042 24.115 20.1222 24.743 19.9042 26.742C19.4897 27.9926 18.8577 29.1602 18.0372 30.191C16.3742 31.922 12.8452 30.106 11.3632 31.545C10.5632 32.324 9.93415 34.928 9.11815 35.431C8.92066 35.5478 8.693 35.6034 8.4639 35.5909C8.23481 35.5784 8.01456 35.4983 7.83096 35.3607C7.64736 35.2231 7.50864 35.0342 7.43232 34.8178C7.35601 34.6015 7.34551 34.3673 7.40215 34.145C7.89709 32.972 8.46865 31.8329 9.11315 30.735C10.7692 28.011 13.6132 28.81 16.3132 28.628C16.7295 28.0681 17.1038 27.4781 17.4332 26.863C17.6172 26.481 17.7442 26.432 17.3892 26.111C16.4952 25.302 14.6292 24.559 13.8582 23.728C13.7283 23.5974 13.6315 23.4378 13.5758 23.2623C13.52 23.0869 13.5068 22.9006 13.5374 22.7191C13.568 22.5375 13.6415 22.3659 13.7517 22.2184C13.8619 22.0709 14.0057 21.9518 14.1712 21.871L18.7632 19.894C19.0152 19.66 18.8822 18.586 18.9632 18.142C19.0354 17.7651 19.186 17.4076 19.4053 17.0927C19.6247 16.7778 19.9077 16.5125 20.2362 16.314C20.8092 15.985 21.6532 15.914 22.1412 15.623C22.1973 15.5951 22.2464 15.5549 22.2848 15.5054C22.3232 15.4558 22.35 15.3983 22.3632 15.337C22.3952 15.128 21.9882 14.703 21.8352 14.523C20.6352 13.114 17.5772 10.304 16.9522 8.80301C16.544 7.09962 16.4263 5.33956 16.6042 3.59701C16.6297 3.30841 16.7623 3.03983 16.976 2.84419C17.1897 2.64855 17.4689 2.54004 17.7587 2.54004C18.0484 2.54004 18.3276 2.64855 18.5413 2.84419C18.755 3.03983 18.8876 3.30841 18.9132 3.59701C19.0762 5.04901 18.4992 7.20301 19.3882 8.38801C20.7262 10.171 22.8282 11.837 24.1062 13.623C24.3429 13.9352 24.5093 14.295 24.5939 14.6776C24.6785 15.0602 24.6793 15.4566 24.5963 15.8395C24.5133 16.2225 24.3483 16.5829 24.1129 16.8961C23.8774 17.2093 23.577 17.4679 23.2322 17.654C22.8532 17.854 21.4742 18.194 21.3112 18.365" fill="white"/>
<path d="M31.7727 30.5609C32.0617 30.2219 32.5727 29.8609 32.8997 29.4889C34.3057 27.8636 35.0738 25.7832 35.0613 23.6341C35.0488 21.4851 34.2565 19.4137 32.8317 17.8049C32.2147 17.1049 30.7797 16.2909 31.7487 15.2109C31.8562 15.0952 31.9859 15.0024 32.1301 14.9378C32.2742 14.8732 32.4299 14.8382 32.5878 14.835C32.7457 14.8317 32.9026 14.8602 33.0493 14.9188C33.196 14.9773 33.3294 15.0648 33.4417 15.1759C38.6007 19.1509 38.6537 28.3229 33.4007 32.2259C33.1795 32.4391 32.883 32.5562 32.5758 32.5517C32.2687 32.5472 31.9757 32.4214 31.7609 32.2018C31.5461 31.9823 31.4267 31.6866 31.429 31.3795C31.4312 31.0723 31.5547 30.7774 31.7727 30.5609Z" fill="white"/>
<path d="M28.6699 29.14C28.5272 28.9903 28.4241 28.8075 28.3699 28.608C28.1829 27.616 28.7759 27.493 29.2879 26.892C30.0631 26.0032 30.4901 24.8638 30.4901 23.6845C30.4901 22.5052 30.0631 21.3657 29.2879 20.477C29.0609 20.211 28.5559 19.877 28.4419 19.592C28.3234 19.3534 28.2903 19.0814 28.348 18.8213C28.4057 18.5613 28.5508 18.3289 28.759 18.1628C28.9673 17.9967 29.2262 17.907 29.4926 17.9087C29.759 17.9104 30.0168 18.0033 30.2229 18.172C32.8729 20.028 33.4049 24.238 31.9959 27.004C31.5099 27.959 29.8779 30.279 28.6659 29.141" fill="white"/>
<path d="M25.4537 20.2399C26.6467 20.0469 27.6147 21.8289 27.8187 22.8169C27.972 23.5518 27.9253 24.3143 27.6835 25.0249C27.4416 25.7355 27.0135 26.3682 26.4437 26.857C26.2883 26.9938 26.0991 27.0865 25.8958 27.1255C25.6924 27.1645 25.4823 27.1483 25.2873 27.0787C25.0923 27.0091 24.9195 26.8886 24.7868 26.7297C24.6541 26.5708 24.5664 26.3792 24.5327 26.1749C24.4147 25.1239 25.5977 24.931 25.6217 23.721C25.6407 22.759 25.1217 22.621 24.7217 22.021C24.6162 21.8626 24.5513 21.6807 24.5327 21.4914C24.514 21.302 24.5421 21.111 24.6146 20.9351C24.6871 20.7592 24.8018 20.6038 24.9484 20.4825C25.0951 20.3613 25.2693 20.278 25.4557 20.2399" fill="white"/>
<path d="M6.62984 17.1564C6.50276 16.7286 6.18355 16.191 6.03607 15.7179C5.41226 13.6602 5.55684 11.4459 6.44294 9.48675C7.32905 7.52759 8.89639 5.95682 10.8536 5.06643C11.7034 4.67816 13.3453 4.51781 12.8992 3.13631C12.8479 2.98689 12.7671 2.84929 12.6616 2.73167C12.5561 2.61405 12.4281 2.51881 12.2851 2.45157C12.1422 2.38433 11.9872 2.34648 11.8293 2.34024C11.6714 2.33401 11.5139 2.35951 11.3661 2.41526C5.03201 3.94829 1.25056 12.3099 4.46419 18.0156C4.5796 18.3005 4.80294 18.5282 5.08553 18.6491C5.36811 18.77 5.68704 18.7743 5.97277 18.661C6.25851 18.5478 6.48787 18.3262 6.61088 18.0445C6.73389 17.7628 6.74097 17.443 6.62984 17.1564Z" fill="white"/>
</svg>
